<svg xmlns="http://www.w3.org/2000/svg" viewBox="0 0 20 20">
  <defs>
    <style>
      .cls-1, .cls-3 {
        fill: #fff;
      }

      .cls-2 {
        fill: #223342;
        stroke: #223342;
      }

      .cls-3 {
        stroke: rgba(0,0,0,0);
        stroke-miterlimit: 10;
      }
    </style>
  </defs>
  <g id="Card-Rating-Icon" transform="translate(-30 -226)">
    <circle id="Ellipse_33" data-name="Ellipse 33" class="cls-1" cx="10" cy="10" r="10" transform="translate(30 226)"/>
    <path id="Combined_Shape" data-name="Combined Shape" class="cls-2" d="M8.446,10.393,5.829,8.512a.46.46,0,0,0-.535,0L2.677,10.393a.451.451,0,0,1-.266.088A.445.445,0,0,1,1.979,9.9L2.984,6.843a.436.436,0,0,0-.163-.491L.185,4.457a.441.441,0,0,1,.267-.8H3.7a.451.451,0,0,0,.43-.307l1-3.046a.455.455,0,0,1,.86,0l1,3.046a.451.451,0,0,0,.43.307H10.67a.441.441,0,0,1,.267.8L8.3,6.351a.436.436,0,0,0-.163.491L9.143,9.9a.445.445,0,0,1-.432.579A.451.451,0,0,1,8.446,10.393Z" transform="translate(34.376 230.484)"/>
    <path id="Fill_3" data-name="Fill 3" class="cls-3" d="M.088,0c-.031,0-.182,7.529,0,7.529a.855.855,0,0,1,.5.161L3.182,9.553a.042.042,0,0,0,.026.01.056.056,0,0,0,.04-.022s0-.006,0-.018L2.253,6.495a.837.837,0,0,1,.31-.944l2.61-1.875c.014-.01.017-.014.012-.029s-.022-.024-.039-.024H1.93a.851.851,0,0,1-.812-.584L.127.024" transform="translate(39.828 230.943)"/>
  </g>
</svg>
