<svg xmlns="http://www.w3.org/2000/svg" viewBox="0 0 377.001 224.413">
  <defs>
    <style>
      .cls-1, .cls-2, .cls-6 {
        fill: none;
      }

      .cls-1, .cls-2 {
        stroke: #fdcf7e;
        stroke-width: 2px;
      }

      .cls-1, .cls-2, .cls-5, .cls-6 {
        stroke-linecap: round;
      }

      .cls-1 {
        stroke-dasharray: 9;
      }

      .cls-2 {
        stroke-dasharray: 8;
      }

      .cls-3 {
        fill: #febc11;
      }

      .cls-4 {
        opacity: 0.9;
      }

      .cls-5 {
        fill: #fff;
      }

      .cls-6 {
        stroke: #fca000;
        stroke-width: 7px;
      }

      .cls-7, .cls-8 {
        stroke: none;
      }

      .cls-8 {
        fill: #fca000;
      }
    </style>
  </defs>
  <g id="Chart-Empty-Image" transform="translate(1 -162.584)">
    <path id="Path_109" data-name="Path 109" class="cls-1" d="M455,2483.092s18.048-71.566,88.983-6.91,36.453-5.719,106.4-21.614S855,2392.092,766,2431.462s58-80.37,58-80.37" transform="translate(-450.1 -2152.092)"/>
    <path id="Path_108" data-name="Path 108" class="cls-2" d="M454.1,2311.584S481.462,2426.03,559,2450s232.333-19,159.667-48,28.577,118.555,80.629,127.224,20.1,2.889,20.1,2.889" transform="translate(-454.1 -2148)"/>
    <ellipse id="Ellipse_35" data-name="Ellipse 35" class="cls-3" cx="87.382" cy="87.382" rx="87.382" ry="87.382" transform="translate(104.9 182.333)"/>
    <g id="Group_170" data-name="Group 170" class="cls-4" transform="translate(122.429 232.436)">
      <g id="Subtraction_9" data-name="Subtraction 9" class="cls-5" transform="translate(0.001 0)">
        <path class="cls-7" d="M 84.92400360107422 112.6045227050781 L 4.999510765075684 112.6045227050781 C 4.172692775726318 112.6045227050781 3.500019788742065 111.9318466186523 3.500019788742065 111.1050109863281 L 3.500019788742065 5.000410556793213 C 3.500019788742065 4.173083305358887 4.172692775726318 3.50001072883606 4.999510765075684 3.50001072883606 L 53.41329193115234 3.50001072883606 L 53.41329193115234 24.59521102905273 C 53.41329193115234 29.28235626220703 57.22656631469727 33.09561157226563 61.91371154785156 33.09561157226563 L 86.42350769042969 33.09561157226563 L 86.42350769042969 111.1050109863281 C 86.42350769042969 111.9318466186523 85.75083923339844 112.6045227050781 84.92400360107422 112.6045227050781 Z"/>
        <path class="cls-8" d="M 82.92352294921875 109.1045227050781 L 82.92352294921875 36.59561157226563 L 61.91372299194336 36.59561157226563 C 55.29665756225586 36.59561157226563 49.91328811645508 31.21226501464844 49.91328811645508 24.59522247314453 L 49.91328811645508 7.000026226043701 L 7.000026226043701 7.000026226043701 L 7.000026226043701 109.1045227050781 L 82.92352294921875 109.1045227050781 M 84.92400360107422 116.1045227050781 L 4.999526023864746 116.1045227050781 C 2.24278712272644 116.1045227050781 2.615887206047773e-05 113.8617401123047 2.615887206047773e-05 111.1050033569336 L 2.615887206047773e-05 5.000417232513428 C 2.615887206047773e-05 2.243200063705444 2.24278712272644 2.603680150059517e-05 4.999526023864746 2.603680150059517e-05 L 56.91328811645508 2.603680150059517e-05 L 56.91328811645508 24.59522247314453 C 56.91328811645508 27.35243988037109 59.1564826965332 29.59561347961426 61.91372299194336 29.59561347961426 L 89.92352294921875 29.59561347961426 L 89.92352294921875 111.1050033569336 C 89.92352294921875 113.8617401123047 87.68074035644531 116.1045227050781 84.92400360107422 116.1045227050781 Z"/>
      </g>
      <line id="Line_22" data-name="Line 22" class="cls-6" x2="30.245" y2="27.554" transform="translate(57.038 3.311)"/>
    </g>
  </g>
</svg>
