<svg xmlns="http://www.w3.org/2000/svg" viewBox="0 0 17.698 28.899">
  <defs>
    <style>
      .cls-1, .cls-3 {
        fill: #fca000;
      }

      .cls-2, .cls-3 {
        stroke: none;
      }
    </style>
  </defs>
  <g id="Maps-Marker" transform="translate(-98.266 -560.43)">
    <g id="Subtraction_5" data-name="Subtraction 5" class="cls-1" transform="translate(98.266 560.43)">
      <path class="cls-2" d="M 8.982872009277344 26.47698593139648 C 7.88253927230835 24.06482124328613 6.63223123550415 21.56696510314941 5.414314746856689 19.13383483886719 L 5.410345077514648 19.12590408325195 L 5.401761054992676 19.10886192321777 L 5.395925045013428 19.09702491760254 L 5.394624710083008 19.09437561035156 L 5.393304824829102 19.09172439575195 C 3.232934951782227 14.77463531494141 1.000004887580872 10.31254482269287 1.000004887580872 8.848734855651855 C 1.000004887580872 4.52093505859375 4.520994663238525 1.000005006790161 8.848875045776367 1.000005006790161 C 13.17662525177002 1.000005006790161 16.6975154876709 4.52093505859375 16.6975154876709 8.848734855651855 C 16.6975154876709 9.294315338134766 16.41567420959473 10.47240543365479 15.07297515869141 13.55437469482422 C 14.04752445220947 15.90813541412354 12.68193531036377 18.74943542480469 11.23615455627441 21.75756454467773 L 11.23452472686768 21.76094436645508 L 11.23292446136475 21.76434516906738 L 11.22657489776611 21.7778148651123 L 11.22461128234863 21.78195571899414 L 11.21180534362793 21.80856513977051 C 10.50245666503906 23.28287315368652 9.726847648620605 24.89489936828613 8.982872009277344 26.47698593139648 Z M 8.84228515625 4.064664840698242 C 6.33606481552124 4.064664840698242 4.297114849090576 6.103704929351807 4.297114849090576 8.610034942626953 C 4.297114849090576 11.1170654296875 6.33606481552124 13.15667533874512 8.84228515625 13.15667533874512 C 11.34944534301758 13.15667533874512 13.38916492462158 11.1170654296875 13.38916492462158 8.610034942626953 C 13.38916492462158 6.103704929351807 11.34944534301758 4.064664840698242 8.84228515625 4.064664840698242 Z"/>
      <path class="cls-3" d="M 8.989588737487793 24.12837791442871 C 9.439792633056641 23.18506050109863 9.887032508850098 22.25551795959473 10.31068515777588 21.3750057220459 L 10.32272624969482 21.3499584197998 L 10.32839488983154 21.33793449401855 L 10.33159446716309 21.33114433288574 L 10.3348445892334 21.32437515258789 C 11.76261520385742 18.35373497009277 13.1111946105957 15.54783535003662 14.12632465362549 13.22346496582031 C 15.59903526306152 9.851345062255859 15.69355487823486 8.984515190124512 15.69751453399658 8.848734855651855 C 15.69751453399658 5.072334766387939 12.62522506713867 2.000005006790161 8.848875045776367 2.000005006790161 C 5.072394847869873 2.000005006790161 2.000004768371582 5.072334766387939 2.000004768371582 8.848734855651855 C 2.000004768371582 8.96849536895752 2.056524991989136 9.693445205688477 3.172414779663086 12.21154499053955 C 3.976244926452637 14.02544498443604 5.098484992980957 16.26803588867188 6.287574768066406 18.64421463012695 L 6.290225028991699 18.64949417114258 L 6.292834758758545 18.65479469299316 L 6.297054767608643 18.66335296630859 L 6.304574966430664 18.67829513549805 L 6.308545112609863 18.68622589111328 C 7.208513736724854 20.48416328430176 8.12614631652832 22.31740188598633 8.989588737487793 24.12837791442871 M 8.84228515625 3.064665079116821 C 11.90084457397461 3.064665079116821 14.38916492462158 5.552304744720459 14.38916492462158 8.610034942626953 C 14.38916492462158 11.66846466064453 11.90084457397461 14.15667533874512 8.84228515625 14.15667533874512 C 5.784665107727051 14.15667533874512 3.297114849090576 11.66846466064453 3.297114849090576 8.610034942626953 C 3.297114849090576 5.552304744720459 5.784665107727051 3.064665079116821 8.84228515625 3.064665079116821 M 8.959714889526367 28.8991756439209 L 8.958495140075684 28.89662551879883 C 7.685054779052734 25.90397453308105 6.073975086212158 22.68577575683594 4.516114711761475 19.57351493835449 L 4.506834983825684 19.55508422851563 L 4.499024868011475 19.53924560546875 C 2.084964990615845 14.71519470214844 4.882812390860636e-06 10.54901504516602 4.882812390860636e-06 8.848734855651855 C 4.882812390860636e-06 3.96952486038208 3.969724893569946 4.960937530995579e-06 8.848875045776367 4.960937530995579e-06 C 13.72802448272705 4.960937530995579e-06 17.6975154876709 3.96952486038208 17.6975154876709 8.848734855651855 C 17.6975154876709 10.62211513519287 14.99682521820068 16.24147415161133 12.13745498657227 22.19075584411621 L 12.13110446929932 22.20422554016113 L 12.12719535827637 22.21247482299805 C 11.11157512664795 24.32334518432617 9.960205078125 26.71586418151855 8.961184501647949 28.89662551879883 L 8.959714889526367 28.8991756439209 Z M 8.84228515625 5.064664840698242 C 6.887454986572266 5.064664840698242 5.297114849090576 6.655105113983154 5.297114849090576 8.610034942626953 C 5.297114849090576 10.56565475463867 6.887454986572266 12.15667533874512 8.84228515625 12.15667533874512 C 10.79809474945068 12.15667533874512 12.38916492462158 10.56565475463867 12.38916492462158 8.610034942626953 C 12.38916492462158 6.655105113983154 10.79809474945068 5.064664840698242 8.84228515625 5.064664840698242 Z"/>
    </g>
  </g>
</svg>
