<svg xmlns="http://www.w3.org/2000/svg" viewBox="0 0 12.476 20.372">
  <defs>
    <style>
      .cls-1 {
        fill: none;
      }

      .cls-2, .cls-3 {
        stroke: none;
      }

      .cls-3 {
        fill: #fca000;
      }
    </style>
  </defs>
  <g id="Marker_Button" data-name="Marker Button" class="cls-1">
    <path class="cls-2" d="M6.316,20.372v0c-.9-2.113-2.038-4.386-3.138-6.585C1.472,10.379,0,7.437,0,6.238a6.238,6.238,0,0,1,12.476,0c0,1.251-1.906,5.216-3.925,9.415-.76,1.581-1.545,3.215-2.234,4.717Z"/>
    <path class="cls-3" d="M 6.334731101989746 15.64769649505615 C 6.473064422607422 15.35952377319336 6.611273765563965 15.07201957702637 6.748650074005127 14.78624820709229 C 7.727570056915283 12.74988842010498 8.652210235595703 10.82645893096924 9.358250617980957 9.22062873840332 C 10.33138179779053 7.007301330566406 10.459059715271 6.346679210662842 10.47571277618408 6.210436820983887 C 10.46094036102295 3.886187553405762 8.56556224822998 1.999998569488525 6.237900257110596 1.999998569488525 C 3.905959606170654 1.999998569488525 2.00789213180542 3.893404960632324 2.000024557113647 6.22353458404541 C 2.0093674659729 6.325531005859375 2.09312891960144 6.845344066619873 2.833430290222168 8.498708724975586 C 3.391210317611694 9.744448661804199 4.155960083007813 11.27238845825195 4.965610027313232 12.89003849029541 C 5.421696186065674 13.80127716064453 5.8841872215271 14.72531318664551 6.334731101989746 15.64769649505615 M 6.316050052642822 20.37225914001465 L 6.315160274505615 20.37016868591309 C 5.415480136871338 18.25732803344727 4.277570247650146 15.98383903503418 3.177120208740234 13.78519821166992 C 1.472290277481079 10.37900829315186 2.57110599477528e-07 7.437408447265625 2.57110599477528e-07 6.237898826599121 C 2.57110599477528e-07 2.798308610916138 2.798310279846191 -1.383667040499859e-06 6.237900257110596 -1.383667040499859e-06 C 9.677490234375 -1.383667040499859e-06 12.47580051422119 2.798308610916138 12.47580051422119 6.237898826599121 C 12.47580051422119 7.488758563995361 10.56945991516113 11.45434856414795 8.551190376281738 15.65276908874512 C 7.79131031036377 17.23346900939941 7.005790233612061 18.86748886108398 6.316990375518799 20.37019920349121 L 6.316050052642822 20.37225914001465 Z"/>
  </g>
</svg>
