<svg xmlns="http://www.w3.org/2000/svg" viewBox="0 0 21.742 22.789">
  <defs>
    <style>
      .cls-1 {
        fill: #d4d1d1;
      }

      .cls-2 {
        fill: #fff;
      }
    </style>
  </defs>
  <g id="Navbar-Search" transform="translate(-53.129 -628.244)">
    <g id="Group_156" data-name="Group 156" transform="translate(-12.893 -9.033)">
      <path id="Search-path" class="cls-1" d="M21.344,20.469l-5.953-6.242a9.121,9.121,0,0,0,1.631-5.261A8.806,8.806,0,0,0,8.481,0,8.249,8.249,0,0,0,2.469,2.6,9.072,9.072,0,0,0,0,8.9a8.806,8.806,0,0,0,8.542,8.966,8.145,8.145,0,0,0,5.034-1.728l.006,0,5.947,6.237a1.245,1.245,0,0,0,1.252.374,1.316,1.316,0,0,0,.92-.965,1.388,1.388,0,0,0-.358-1.312Z" transform="translate(66.022 637.276)"/>
      <path id="Search-path-2" data-name="Search-path" class="cls-2" d="M6.834,14.293A7.045,7.045,0,0,1,0,7.121,7.26,7.26,0,0,1,1.975,2.078,6.6,6.6,0,0,1,6.784,0a7.045,7.045,0,0,1,6.833,7.172,7.26,7.26,0,0,1-1.975,5.043A6.6,6.6,0,0,1,6.834,14.293Z" transform="translate(67.724 639.063)"/>
    </g>
  </g>
</svg>
