<svg xmlns="http://www.w3.org/2000/svg" xmlns:xlink="http://www.w3.org/1999/xlink" viewBox="0 0 400.129 62.251">
  <defs>
    <style>
      .cls-1, .cls-3 {
        fill: none;
      }

      .cls-2 {
        opacity: 0.5;
        clip-path: url(#clip-path);
      }

      .cls-3 {
        stroke: #fca000;
      }

      .cls-4 {
        stroke: none;
      }
    </style>
    <clipPath id="clip-path">
      <rect class="cls-1" width="400.129" height="62.251"/>
    </clipPath>
  </defs>
  <g id="Toolbar-Background" class="cls-2">
    <g transform="translate(-236.936 -61.076)">
      <g id="Rectangle_146" data-name="Rectangle 146" class="cls-3" transform="translate(307.167 61.076)">
        <rect class="cls-4" width="26.137" height="6.915" rx="3.457"/>
        <rect class="cls-1" x="0.5" y="0.5" width="25.137" height="5.915" rx="2.957"/>
      </g>
      <g id="Rectangle_156" data-name="Rectangle 156" class="cls-3" transform="translate(236.936 61.076)">
        <rect class="cls-4" width="66.241" height="6.915" rx="3.457"/>
        <rect class="cls-1" x="0.5" y="0.5" width="65.241" height="5.915" rx="2.957"/>
      </g>
      <g id="Rectangle_151" data-name="Rectangle 151" class="cls-3" transform="translate(278.835 88.745)">
        <rect class="cls-4" width="31.125" height="6.915" rx="3.457"/>
        <rect class="cls-1" x="0.5" y="0.5" width="30.125" height="5.915" rx="2.957"/>
      </g>
      <g id="Rectangle_159" data-name="Rectangle 159" class="cls-3" transform="translate(313.951 88.745)">
        <rect class="cls-4" width="36.113" height="6.915" rx="3.457"/>
        <rect class="cls-1" x="0.5" y="0.5" width="35.113" height="5.915" rx="2.957"/>
      </g>
      <g id="Rectangle_158" data-name="Rectangle 158" class="cls-3" transform="translate(256.289 88.745)">
        <rect class="cls-4" width="18.556" height="6.915" rx="3.457"/>
        <rect class="cls-1" x="0.5" y="0.5" width="17.556" height="5.915" rx="2.957"/>
      </g>
      <g id="Rectangle_149" data-name="Rectangle 149" class="cls-3" transform="translate(291.205 74.905)">
        <rect class="cls-4" width="53.099" height="6.915" rx="3.457"/>
        <rect class="cls-1" x="0.5" y="0.5" width="52.099" height="5.915" rx="2.957"/>
      </g>
      <g id="Rectangle_157" data-name="Rectangle 157" class="cls-3" transform="translate(264.669 74.905)">
        <rect class="cls-4" width="22.546" height="6.915" rx="3.457"/>
        <rect class="cls-1" x="0.5" y="0.5" width="21.546" height="5.915" rx="2.957"/>
      </g>
      <g id="Rectangle_162" data-name="Rectangle 162" class="cls-3" transform="translate(247.311 74.905)">
        <rect class="cls-4" width="13.368" height="6.915" rx="3.457"/>
        <rect class="cls-1" x="0.5" y="0.5" width="12.368" height="5.915" rx="2.957"/>
      </g>
      <g id="Rectangle_153" data-name="Rectangle 153" class="cls-3" transform="translate(244.118 102.575)">
        <rect class="cls-4" width="41.301" height="6.915" rx="3.457"/>
        <rect class="cls-1" x="0.5" y="0.5" width="40.301" height="5.915" rx="2.957"/>
      </g>
      <g id="Rectangle_160" data-name="Rectangle 160" class="cls-3" transform="translate(289.41 102.575)">
        <rect class="cls-4" width="12.57" height="6.915" rx="3.457"/>
        <rect class="cls-1" x="0.5" y="0.5" width="11.57" height="5.915" rx="2.957"/>
      </g>
      <g id="Rectangle_161" data-name="Rectangle 161" class="cls-3" transform="translate(305.97 102.575)">
        <rect class="cls-4" width="34.334" height="6.915" rx="3.457"/>
        <rect class="cls-1" x="0.5" y="0.5" width="33.334" height="5.915" rx="2.957"/>
      </g>
      <g id="Rectangle_155" data-name="Rectangle 155" class="cls-3" transform="translate(315.747 116.412)">
        <rect class="cls-4" width="17.558" height="6.915" rx="3.457"/>
        <rect class="cls-1" x="0.5" y="0.5" width="16.558" height="5.915" rx="2.957"/>
      </g>
      <g id="Rectangle_163" data-name="Rectangle 163" class="cls-3" transform="translate(283.823 116.412)">
        <rect class="cls-4" width="27.933" height="6.915" rx="3.457"/>
        <rect class="cls-1" x="0.5" y="0.5" width="26.933" height="5.915" rx="2.957"/>
      </g>
      <g id="Rectangle_164" data-name="Rectangle 164" class="cls-3" transform="translate(236.936 116.412)">
        <rect class="cls-4" width="42.897" height="6.915" rx="3.457"/>
        <rect class="cls-1" x="0.5" y="0.5" width="41.897" height="5.915" rx="2.957"/>
      </g>
    </g>
    <g transform="translate(-134.936 -61.076)">
      <g id="Rectangle_146-2" data-name="Rectangle 146" class="cls-3" transform="translate(307.167 61.076)">
        <rect class="cls-4" width="26.137" height="6.915" rx="3.457"/>
        <rect class="cls-1" x="0.5" y="0.5" width="25.137" height="5.915" rx="2.957"/>
      </g>
      <g id="Rectangle_156-2" data-name="Rectangle 156" class="cls-3" transform="translate(236.936 61.076)">
        <rect class="cls-4" width="66.241" height="6.915" rx="3.457"/>
        <rect class="cls-1" x="0.5" y="0.5" width="65.241" height="5.915" rx="2.957"/>
      </g>
      <g id="Rectangle_151-2" data-name="Rectangle 151" class="cls-3" transform="translate(278.835 88.745)">
        <rect class="cls-4" width="31.125" height="6.915" rx="3.457"/>
        <rect class="cls-1" x="0.5" y="0.5" width="30.125" height="5.915" rx="2.957"/>
      </g>
      <g id="Rectangle_159-2" data-name="Rectangle 159" class="cls-3" transform="translate(313.951 88.745)">
        <rect class="cls-4" width="36.113" height="6.915" rx="3.457"/>
        <rect class="cls-1" x="0.5" y="0.5" width="35.113" height="5.915" rx="2.957"/>
      </g>
      <g id="Rectangle_158-2" data-name="Rectangle 158" class="cls-3" transform="translate(256.289 88.745)">
        <rect class="cls-4" width="18.556" height="6.915" rx="3.457"/>
        <rect class="cls-1" x="0.5" y="0.5" width="17.556" height="5.915" rx="2.957"/>
      </g>
      <g id="Rectangle_149-2" data-name="Rectangle 149" class="cls-3" transform="translate(291.205 74.905)">
        <rect class="cls-4" width="53.099" height="6.915" rx="3.457"/>
        <rect class="cls-1" x="0.5" y="0.5" width="52.099" height="5.915" rx="2.957"/>
      </g>
      <g id="Rectangle_157-2" data-name="Rectangle 157" class="cls-3" transform="translate(264.669 74.905)">
        <rect class="cls-4" width="22.546" height="6.915" rx="3.457"/>
        <rect class="cls-1" x="0.5" y="0.5" width="21.546" height="5.915" rx="2.957"/>
      </g>
      <g id="Rectangle_162-2" data-name="Rectangle 162" class="cls-3" transform="translate(247.311 74.905)">
        <rect class="cls-4" width="13.368" height="6.915" rx="3.457"/>
        <rect class="cls-1" x="0.5" y="0.5" width="12.368" height="5.915" rx="2.957"/>
      </g>
      <g id="Rectangle_153-2" data-name="Rectangle 153" class="cls-3" transform="translate(244.118 102.575)">
        <rect class="cls-4" width="41.301" height="6.915" rx="3.457"/>
        <rect class="cls-1" x="0.5" y="0.5" width="40.301" height="5.915" rx="2.957"/>
      </g>
      <g id="Rectangle_160-2" data-name="Rectangle 160" class="cls-3" transform="translate(289.41 102.575)">
        <rect class="cls-4" width="12.57" height="6.915" rx="3.457"/>
        <rect class="cls-1" x="0.5" y="0.5" width="11.57" height="5.915" rx="2.957"/>
      </g>
      <g id="Rectangle_161-2" data-name="Rectangle 161" class="cls-3" transform="translate(305.97 102.575)">
        <rect class="cls-4" width="34.334" height="6.915" rx="3.457"/>
        <rect class="cls-1" x="0.5" y="0.5" width="33.334" height="5.915" rx="2.957"/>
      </g>
      <g id="Rectangle_155-2" data-name="Rectangle 155" class="cls-3" transform="translate(315.747 116.412)">
        <rect class="cls-4" width="17.558" height="6.915" rx="3.457"/>
        <rect class="cls-1" x="0.5" y="0.5" width="16.558" height="5.915" rx="2.957"/>
      </g>
      <g id="Rectangle_163-2" data-name="Rectangle 163" class="cls-3" transform="translate(283.823 116.412)">
        <rect class="cls-4" width="27.933" height="6.915" rx="3.457"/>
        <rect class="cls-1" x="0.5" y="0.5" width="26.933" height="5.915" rx="2.957"/>
      </g>
      <g id="Rectangle_164-2" data-name="Rectangle 164" class="cls-3" transform="translate(236.936 116.412)">
        <rect class="cls-4" width="42.897" height="6.915" rx="3.457"/>
        <rect class="cls-1" x="0.5" y="0.5" width="41.897" height="5.915" rx="2.957"/>
      </g>
    </g>
    <g transform="translate(-32.936 -61.076)">
      <g id="Rectangle_146-3" data-name="Rectangle 146" class="cls-3" transform="translate(307.167 61.076)">
        <rect class="cls-4" width="26.137" height="6.915" rx="3.457"/>
        <rect class="cls-1" x="0.5" y="0.5" width="25.137" height="5.915" rx="2.957"/>
      </g>
      <g id="Rectangle_156-3" data-name="Rectangle 156" class="cls-3" transform="translate(236.936 61.076)">
        <rect class="cls-4" width="66.241" height="6.915" rx="3.457"/>
        <rect class="cls-1" x="0.5" y="0.5" width="65.241" height="5.915" rx="2.957"/>
      </g>
      <g id="Rectangle_151-3" data-name="Rectangle 151" class="cls-3" transform="translate(278.835 88.745)">
        <rect class="cls-4" width="31.125" height="6.915" rx="3.457"/>
        <rect class="cls-1" x="0.5" y="0.5" width="30.125" height="5.915" rx="2.957"/>
      </g>
      <g id="Rectangle_159-3" data-name="Rectangle 159" class="cls-3" transform="translate(313.951 88.745)">
        <rect class="cls-4" width="36.113" height="6.915" rx="3.457"/>
        <rect class="cls-1" x="0.5" y="0.5" width="35.113" height="5.915" rx="2.957"/>
      </g>
      <g id="Rectangle_158-3" data-name="Rectangle 158" class="cls-3" transform="translate(256.289 88.745)">
        <rect class="cls-4" width="18.556" height="6.915" rx="3.457"/>
        <rect class="cls-1" x="0.5" y="0.5" width="17.556" height="5.915" rx="2.957"/>
      </g>
      <g id="Rectangle_149-3" data-name="Rectangle 149" class="cls-3" transform="translate(291.205 74.905)">
        <rect class="cls-4" width="53.099" height="6.915" rx="3.457"/>
        <rect class="cls-1" x="0.5" y="0.5" width="52.099" height="5.915" rx="2.957"/>
      </g>
      <g id="Rectangle_157-3" data-name="Rectangle 157" class="cls-3" transform="translate(264.669 74.905)">
        <rect class="cls-4" width="22.546" height="6.915" rx="3.457"/>
        <rect class="cls-1" x="0.5" y="0.5" width="21.546" height="5.915" rx="2.957"/>
      </g>
      <g id="Rectangle_162-3" data-name="Rectangle 162" class="cls-3" transform="translate(247.311 74.905)">
        <rect class="cls-4" width="13.368" height="6.915" rx="3.457"/>
        <rect class="cls-1" x="0.5" y="0.5" width="12.368" height="5.915" rx="2.957"/>
      </g>
      <g id="Rectangle_153-3" data-name="Rectangle 153" class="cls-3" transform="translate(244.118 102.575)">
        <rect class="cls-4" width="41.301" height="6.915" rx="3.457"/>
        <rect class="cls-1" x="0.5" y="0.5" width="40.301" height="5.915" rx="2.957"/>
      </g>
      <g id="Rectangle_160-3" data-name="Rectangle 160" class="cls-3" transform="translate(289.41 102.575)">
        <rect class="cls-4" width="12.57" height="6.915" rx="3.457"/>
        <rect class="cls-1" x="0.5" y="0.5" width="11.57" height="5.915" rx="2.957"/>
      </g>
      <g id="Rectangle_161-3" data-name="Rectangle 161" class="cls-3" transform="translate(305.97 102.575)">
        <rect class="cls-4" width="34.334" height="6.915" rx="3.457"/>
        <rect class="cls-1" x="0.5" y="0.5" width="33.334" height="5.915" rx="2.957"/>
      </g>
      <g id="Rectangle_155-3" data-name="Rectangle 155" class="cls-3" transform="translate(315.747 116.412)">
        <rect class="cls-4" width="17.558" height="6.915" rx="3.457"/>
        <rect class="cls-1" x="0.5" y="0.5" width="16.558" height="5.915" rx="2.957"/>
      </g>
      <g id="Rectangle_163-3" data-name="Rectangle 163" class="cls-3" transform="translate(283.823 116.412)">
        <rect class="cls-4" width="27.933" height="6.915" rx="3.457"/>
        <rect class="cls-1" x="0.5" y="0.5" width="26.933" height="5.915" rx="2.957"/>
      </g>
      <g id="Rectangle_164-3" data-name="Rectangle 164" class="cls-3" transform="translate(236.936 116.412)">
        <rect class="cls-4" width="42.897" height="6.915" rx="3.457"/>
        <rect class="cls-1" x="0.5" y="0.5" width="41.897" height="5.915" rx="2.957"/>
      </g>
    </g>
    <g transform="translate(69.064 -61.076)">
      <g id="Rectangle_146-4" data-name="Rectangle 146" class="cls-3" transform="translate(307.167 61.076)">
        <rect class="cls-4" width="26.137" height="6.915" rx="3.457"/>
        <rect class="cls-1" x="0.5" y="0.5" width="25.137" height="5.915" rx="2.957"/>
      </g>
      <g id="Rectangle_156-4" data-name="Rectangle 156" class="cls-3" transform="translate(236.936 61.076)">
        <rect class="cls-4" width="66.241" height="6.915" rx="3.457"/>
        <rect class="cls-1" x="0.5" y="0.5" width="65.241" height="5.915" rx="2.957"/>
      </g>
      <g id="Rectangle_151-4" data-name="Rectangle 151" class="cls-3" transform="translate(278.835 88.745)">
        <rect class="cls-4" width="31.125" height="6.915" rx="3.457"/>
        <rect class="cls-1" x="0.5" y="0.5" width="30.125" height="5.915" rx="2.957"/>
      </g>
      <g id="Rectangle_159-4" data-name="Rectangle 159" class="cls-3" transform="translate(313.951 88.745)">
        <rect class="cls-4" width="36.113" height="6.915" rx="3.457"/>
        <rect class="cls-1" x="0.5" y="0.5" width="35.113" height="5.915" rx="2.957"/>
      </g>
      <g id="Rectangle_158-4" data-name="Rectangle 158" class="cls-3" transform="translate(256.289 88.745)">
        <rect class="cls-4" width="18.556" height="6.915" rx="3.457"/>
        <rect class="cls-1" x="0.5" y="0.5" width="17.556" height="5.915" rx="2.957"/>
      </g>
      <g id="Rectangle_149-4" data-name="Rectangle 149" class="cls-3" transform="translate(291.205 74.905)">
        <rect class="cls-4" width="53.099" height="6.915" rx="3.457"/>
        <rect class="cls-1" x="0.5" y="0.5" width="52.099" height="5.915" rx="2.957"/>
      </g>
      <g id="Rectangle_157-4" data-name="Rectangle 157" class="cls-3" transform="translate(264.669 74.905)">
        <rect class="cls-4" width="22.546" height="6.915" rx="3.457"/>
        <rect class="cls-1" x="0.5" y="0.5" width="21.546" height="5.915" rx="2.957"/>
      </g>
      <g id="Rectangle_162-4" data-name="Rectangle 162" class="cls-3" transform="translate(247.311 74.905)">
        <rect class="cls-4" width="13.368" height="6.915" rx="3.457"/>
        <rect class="cls-1" x="0.5" y="0.5" width="12.368" height="5.915" rx="2.957"/>
      </g>
      <g id="Rectangle_153-4" data-name="Rectangle 153" class="cls-3" transform="translate(244.118 102.575)">
        <rect class="cls-4" width="41.301" height="6.915" rx="3.457"/>
        <rect class="cls-1" x="0.5" y="0.5" width="40.301" height="5.915" rx="2.957"/>
      </g>
      <g id="Rectangle_160-4" data-name="Rectangle 160" class="cls-3" transform="translate(289.41 102.575)">
        <rect class="cls-4" width="12.57" height="6.915" rx="3.457"/>
        <rect class="cls-1" x="0.5" y="0.5" width="11.57" height="5.915" rx="2.957"/>
      </g>
      <g id="Rectangle_161-4" data-name="Rectangle 161" class="cls-3" transform="translate(305.97 102.575)">
        <rect class="cls-4" width="34.334" height="6.915" rx="3.457"/>
        <rect class="cls-1" x="0.5" y="0.5" width="33.334" height="5.915" rx="2.957"/>
      </g>
      <g id="Rectangle_155-4" data-name="Rectangle 155" class="cls-3" transform="translate(315.747 116.412)">
        <rect class="cls-4" width="17.558" height="6.915" rx="3.457"/>
        <rect class="cls-1" x="0.5" y="0.5" width="16.558" height="5.915" rx="2.957"/>
      </g>
      <g id="Rectangle_163-4" data-name="Rectangle 163" class="cls-3" transform="translate(283.823 116.412)">
        <rect class="cls-4" width="27.933" height="6.915" rx="3.457"/>
        <rect class="cls-1" x="0.5" y="0.5" width="26.933" height="5.915" rx="2.957"/>
      </g>
      <g id="Rectangle_164-4" data-name="Rectangle 164" class="cls-3" transform="translate(236.936 116.412)">
        <rect class="cls-4" width="42.897" height="6.915" rx="3.457"/>
        <rect class="cls-1" x="0.5" y="0.5" width="41.897" height="5.915" rx="2.957"/>
      </g>
    </g>
  </g>
</svg>
