<svg xmlns="http://www.w3.org/2000/svg" viewBox="0 0 42.056 42.056">
  <defs>
    <style>
      .cls-1 {
        fill: #fff;
      }

      .cls-2 {
        fill: #febc11;
        stroke-linecap: round;
        stroke-linejoin: round;
      }

      .cls-3 {
        fill: #fdcf7e;
      }

      .cls-4, .cls-6 {
        fill: #fca000;
      }

      .cls-5, .cls-6 {
        stroke: none;
      }
    </style>
  </defs>
  <g id="AirPanas-Icon" transform="translate(-1352.988 -328.121)">
    <rect id="Rectangle_328" data-name="Rectangle 328" class="cls-1" width="42.056" height="42.056" transform="translate(1352.988 328.121)"/>
    <g id="Group_174" data-name="Group 174" transform="translate(1378.407 359.976) rotate(180)">
      <g id="Subtraction_5" data-name="Subtraction 5" class="cls-2" transform="translate(0 0)">
        <path class="cls-5" d="M 6.3201904296875 22.96308517456055 L 5.433270454406738 20.8825855255127 L 5.432640075683594 20.88110542297363 C 4.539970397949219 18.78521537780762 3.40250039100647 16.51278495788574 2.302480220794678 14.31518459320068 C 0.1932102888822556 10.10135459899902 -0.9999997019767761 7.650574684143066 -0.9999997019767761 6.27446460723877 C -0.9999997019767761 2.263314723968506 2.26360034942627 -0.999995231628418 6.275110244750977 -0.999995231628418 C 10.28627014160156 -0.999995231628418 13.54958057403564 2.263314723968506 13.54958057403564 6.27446460723877 C 13.54958057403564 7.688864707946777 12.01205062866211 10.95862483978271 9.503410339355469 16.17644500732422 C 8.74077033996582 17.7626838684082 7.952520370483398 19.40217399597168 7.263090133666992 20.90616416931152 L 6.3201904296875 22.96308517456055 Z"/>
        <path class="cls-6" d="M 6.35338020324707 20.49091529846191 L 6.354050159454346 20.48945426940918 C 7.047410488128662 18.97690391540527 7.8378005027771 17.33295440673828 8.602160453796387 15.74313449859619 C 10.63216018676758 11.52086448669434 12.54958057403564 7.532744884490967 12.54958057403564 6.27446460723877 C 12.54958057403564 2.814714670181274 9.734860420227051 4.788208116224268e-06 6.275110244750977 4.788208116224268e-06 C 2.815000295639038 4.788208116224268e-06 2.870178263947309e-07 2.814714670181274 2.870178263947309e-07 6.27446460723877 C 2.870178263947309e-07 7.481294631958008 1.481260299682617 10.440505027771 3.196430206298828 13.86701488494873 C 4.303310394287109 16.07832527160645 5.447880268096924 18.36490440368652 6.352750301361084 20.48943519592285 L 6.35338020324707 20.49091529846191 M 6.353838443756104 22.49018287658691 C 6.344674587249756 22.49018287658691 6.335522651672363 22.49011993408203 6.326340198516846 22.48999404907227 C 5.534520149230957 22.47915458679199 4.823330402374268 22.00287437438965 4.51317024230957 21.27424430847168 L 4.512540340423584 21.27276420593262 C 3.631990194320679 19.20533561706543 2.501510381698608 16.94688415527344 1.408250331878662 14.76279449462891 C -0.8314297199249268 10.28844451904297 -1.999999761581421 7.879164695739746 -1.999999761581421 6.27446460723877 C -1.999999761581421 1.711914777755737 1.712200284004211 -1.999995231628418 6.275110244750977 -1.999995231628418 C 10.83767032623291 -1.999995231628418 14.54958057403564 1.711914777755737 14.54958057403564 6.27446460723877 C 14.54958057403564 7.833544731140137 13.35000038146973 10.48361492156982 10.40465068817139 16.60974502563477 C 9.643970489501953 18.19192504882813 8.85774040222168 19.82722473144531 8.172130584716797 21.32287406921387 C 7.845967292785645 22.03438758850098 7.13487720489502 22.49018287658691 6.353838443756104 22.49018287658691 Z"/>
      </g>
    </g>
    <g id="Union_7" data-name="Union 7" class="cls-3" transform="translate(1375.815 342.99)">
      <path class="cls-5" d="M 3.168900012969971 16.92939949035645 C 1.697260022163391 16.92939949035645 0.5 15.73213958740234 0.5 14.26049995422363 C 0.5 13.44611930847168 0.8647600412368774 12.68664932250977 1.500740051269531 12.17680931091309 L 1.687999963760376 12.02668952941895 L 1.687999963760376 11.78668975830078 L 1.687999963760376 1.980899691581726 C 1.687999963760376 1.164329767227173 2.352329969406128 0.4999997317790985 3.168900012969971 0.4999997317790985 C 3.985470056533813 0.4999997317790985 4.649799823760986 1.164329767227173 4.649799823760986 1.980899691581726 L 4.649799823760986 11.78670978546143 L 4.649799823760986 12.02668952941895 L 4.837029933929443 12.17679977416992 C 5.473030090332031 12.68674945831299 5.837800025939941 13.44622993469238 5.837800025939941 14.26049995422363 C 5.837800025939941 15.73213958740234 4.64054012298584 16.92939949035645 3.168900012969971 16.92939949035645 Z"/>
      <path class="cls-6" d="M 3.168900012969971 16.42939949035645 C 4.364840030670166 16.42939949035645 5.337800025939941 15.45643997192383 5.337800025939941 14.26049995422363 C 5.337800025939941 13.59873008728027 5.041269779205322 12.9814395904541 4.524250030517578 12.56689929962158 L 4.149799823760986 12.2666597366333 L 4.149799823760986 11.78670978546143 L 4.149799823760986 1.980899691581726 C 4.149799823760986 1.440029740333557 3.70976996421814 0.9999997615814209 3.168900012969971 0.9999997615814209 C 2.628030061721802 0.9999997615814209 2.187999963760376 1.440029740333557 2.187999963760376 1.980899691581726 L 2.187999963760376 11.78668975830078 L 2.187999963760376 12.26669979095459 L 1.813480019569397 12.56692981719971 C 1.296499967575073 12.981369972229 1 13.5986499786377 1 14.26049995422363 C 1 15.45643997192383 1.972959995269775 16.42939949035645 3.168900012969971 16.42939949035645 M 3.168900012969971 17.42939949035645 C 1.418400049209595 17.42939949035645 1.296996998689792e-08 16.01099967956543 1.296996998689792e-08 14.26049995422363 C 1.296996998689792e-08 13.25959968566895 0.4636300206184387 12.36738014221191 1.187999963760376 11.78668975830078 L 1.187999963760376 1.980899691581726 C 1.187999963760376 0.8864997625350952 2.075400114059448 -2.548217707953881e-07 3.168900012969971 -2.548217707953881e-07 C 4.263299942016602 -2.548217707953881e-07 5.149799823760986 0.8864997625350952 5.149799823760986 1.980899691581726 L 5.149799823760986 11.78670978546143 C 5.874040126800537 12.36740016937256 6.337800025939941 13.25970935821533 6.337800025939941 14.26049995422363 C 6.337800025939941 16.01099967956543 4.919400215148926 17.42939949035645 3.168900012969971 17.42939949035645 Z"/>
    </g>
    <g id="Union_8" data-name="Union 8" class="cls-4" transform="translate(1377.708 350.6)">
      <path class="cls-5" d="M 1.275300025939941 7.410099983215332 C 0.8478000164031982 7.410099983215332 0.5 7.062300205230713 0.5 6.634799957275391 C 0.5 6.287230014801025 0.7333500385284424 5.979949951171875 1.067479968070984 5.887550354003906 L 1.275310277938843 5.83007287979126 L 1.483120083808899 5.887550354003906 C 1.817239999771118 5.979959964752197 2.050600051879883 6.287240028381348 2.050600051879883 6.634799957275391 C 2.050600051879883 7.062300205230713 1.702800035476685 7.410099983215332 1.275300025939941 7.410099983215332 Z"/>
      <path class="cls-6" d="M 1.275300025939941 6.910099983215332 C 1.4271000623703 6.910099983215332 1.550600051879883 6.786600112915039 1.550600051879883 6.634799957275391 C 1.550600051879883 6.490640163421631 1.446529984474182 6.396200180053711 1.349830031394958 6.369460105895996 L 1.275292873382568 6.3488450050354 L 1.20074999332428 6.369460105895996 C 1.104060053825378 6.396200180053711 1 6.490640163421631 1 6.634799957275391 C 1 6.786600112915039 1.123499989509583 6.910099983215332 1.275300025939941 6.910099983215332 M 1.275300025939941 7.910099983215332 C 0.5706000328063965 7.910099983215332 2.593994175015268e-08 7.338600158691406 2.593994175015268e-08 6.634799957275391 C 2.593994175015268e-08 6.048250198364258 0.3952900171279907 5.554680347442627 0.9342000484466553 5.405640125274658 L 0.9342000484466553 -3.658499956130981 C 0.9342000484466553 -3.847499847412109 1.087200045585632 -4.000499725341797 1.275300025939941 -4.000499725341797 C 1.464300036430359 -4.000499725341797 1.616400003433228 -3.847499847412109 1.616400003433228 -3.658499956130981 L 1.616400003433228 5.405640125274658 C 2.155309915542603 5.554690361022949 2.550600051879883 6.048250198364258 2.550600051879883 6.634799957275391 C 2.550600051879883 7.338600158691406 1.980000019073486 7.910099983215332 1.275300025939941 7.910099983215332 Z"/>
    </g>
  </g>
</svg>
