<svg xmlns="http://www.w3.org/2000/svg" viewBox="0 0 42.056 42.056">
  <defs>
    <style>
      .cls-1 {
        fill: #fff;
      }

      .cls-2, .cls-7 {
        fill: #febc11;
      }

      .cls-10, .cls-3, .cls-6 {
        fill: #fca000;
      }

      .cls-3, .cls-7 {
        stroke: #fca000;
      }

      .cls-4, .cls-5, .cls-9 {
        fill: none;
      }

      .cls-4, .cls-5 {
        stroke: #febc11;
      }

      .cls-4 {
        stroke-width: 2px;
      }

      .cls-10, .cls-8 {
        stroke: none;
      }
    </style>
  </defs>
  <g id="Dapur-Icon" transform="translate(-1706.789 -225.783)">
    <rect id="Rectangle_382" data-name="Rectangle 382" class="cls-1" width="42.056" height="42.056" transform="translate(1706.789 225.783)"/>
    <g id="Group_514" data-name="Group 514" transform="translate(1711.361 237.935) rotate(-45)">
      <path id="Path_85" data-name="Path 85" class="cls-2" d="M1.122,0A1.122,1.122,0,0,1,2.244,1.122V13.453a1.122,1.122,0,0,1-2.244,0V1.122A1.122,1.122,0,0,1,1.122,0Z" transform="translate(4.305 10.056)"/>
      <g id="Rectangle_238" data-name="Rectangle 238" class="cls-3" transform="translate(3.076 23.572)">
        <rect class="cls-8" width="4.701" height="12.117" rx="2.351"/>
        <rect class="cls-9" x="0.5" y="0.5" width="3.701" height="11.117" rx="1.851"/>
      </g>
      <g id="Rectangle_384" data-name="Rectangle 384" class="cls-4">
        <path class="cls-8" d="M1,0H9.845a1,1,0,0,1,1,1V8.115a3,3,0,0,1-3,3H2a2,2,0,0,1-2-2V1A1,1,0,0,1,1,0Z"/>
        <path class="cls-9" d="M1,1H9.845a0,0,0,0,1,0,0V8.115a2,2,0,0,1-2,2H2a1,1,0,0,1-1-1V1A0,0,0,0,1,1,1Z"/>
      </g>
      <g id="Rectangle_385" data-name="Rectangle 385" class="cls-5" transform="translate(3.686 1.023)">
        <rect class="cls-8" width="3.472" height="9.068" rx="1"/>
        <rect class="cls-9" x="0.5" y="0.5" width="2.472" height="8.068" rx="0.5"/>
      </g>
    </g>
    <g id="Group_515" data-name="Group 515" transform="translate(1737.825 231.763) rotate(45)">
      <g id="Subtraction_11" data-name="Subtraction 11" class="cls-6" transform="translate(0 0)">
        <path class="cls-8" d="M 6.658600330352783 23.90439987182617 L 0.5000001788139343 23.90439987182617 L 0.5000001788139343 0.4999999403953552 L 1.158300161361694 0.4999999403953552 C 4.191180229187012 0.4999999403953552 6.658600330352783 2.967419862747192 6.658600330352783 6.00029993057251 L 6.658600330352783 23.90439987182617 Z M 1.843200206756592 3.186399936676025 C 1.22855019569397 3.186399936676025 0.7285001873970032 3.686049938201904 0.7285001873970032 4.30019998550415 C 0.7285001873970032 4.914849758148193 1.22855019569397 5.414899826049805 1.843200206756592 5.414899826049805 C 2.457850217819214 5.414899826049805 2.957900047302246 4.914849758148193 2.957900047302246 4.30019998550415 C 2.957900047302246 3.686049938201904 2.457850217819214 3.186399936676025 1.843200206756592 3.186399936676025 Z"/>
        <path class="cls-10" d="M 6.158600330352783 23.40439987182617 L 6.158600330352783 6.00029993057251 C 6.158600330352783 3.243129968643188 3.915470123291016 0.9999999403953552 1.158300161361694 0.9999999403953552 L 1.00000011920929 0.9999999403953552 L 1.00000011920929 2.924371957778931 C 1.245555996894836 2.773507356643677 1.534425258636475 2.686399936676025 1.843200206756592 2.686399936676025 C 2.733550071716309 2.686399936676025 3.457900047302246 3.41034984588623 3.457900047302246 4.30019998550415 C 3.457900047302246 5.190549850463867 2.733550071716309 5.914899826049805 1.843200206756592 5.914899826049805 C 1.534425258636475 5.914899826049805 1.245555996894836 5.827744483947754 1.00000011920929 5.676796436309814 L 1.00000011920929 23.40439987182617 L 6.158600330352783 23.40439987182617 M 7.158600330352783 24.40439987182617 L 7.157600402832031 24.40439987182617 L 1.651763881227453e-07 24.40439987182617 L 1.651763881227453e-07 -6.408691888282192e-08 L 1.158300161361694 -6.408691888282192e-08 C 4.466880321502686 -6.408691888282192e-08 7.158600330352783 2.691720008850098 7.158600330352783 6.00029993057251 L 7.158600330352783 24.40340042114258 L 7.158600330352783 24.40439987182617 Z M 1.843200206756592 3.686399936676025 C 1.504250168800354 3.686399936676025 1.228500127792358 3.961750030517578 1.228500127792358 4.30019998550415 C 1.228500127792358 4.639150142669678 1.504250168800354 4.914899826049805 1.843200206756592 4.914899826049805 C 2.18215012550354 4.914899826049805 2.457900047302246 4.639150142669678 2.457900047302246 4.30019998550415 C 2.457900047302246 3.961750030517578 2.18215012550354 3.686399936676025 1.843200206756592 3.686399936676025 Z"/>
      </g>
      <g id="Rectangle_238-2" data-name="Rectangle 238" class="cls-7" transform="translate(0 23.346)">
        <path class="cls-8" d="M0,0H4.7a0,0,0,0,1,0,0V10.117a2,2,0,0,1-2,2H2a2,2,0,0,1-2-2V0A0,0,0,0,1,0,0Z"/>
        <path class="cls-9" d="M1,.5H3.7a.5.5,0,0,1,.5.5v9.117a1.5,1.5,0,0,1-1.5,1.5H2a1.5,1.5,0,0,1-1.5-1.5V1A.5.5,0,0,1,1,.5Z"/>
      </g>
    </g>
  </g>
</svg>
