<svg xmlns="http://www.w3.org/2000/svg" xmlns:xlink="http://www.w3.org/1999/xlink" viewBox="0 0 42.056 42.056">
  <defs>
    <style>
      .cls-1 {
        fill: #fff;
      }

      .cls-2, .cls-3, .cls-4 {
        fill: #febc11;
      }

      .cls-2 {
        stroke: #fca000;
      }

      .cls-3 {
        stroke: #febc11;
      }

      .cls-5, .cls-9 {
        stroke: none;
      }

      .cls-6, .cls-7, .cls-8 {
        fill: none;
      }

      .cls-6 {
        clip-path: url(#clip);
      }

      .cls-7 {
        clip-path: url(#clip-2);
      }

      .cls-8 {
        clip-path: url(#clip-3);
      }

      .cls-9 {
        fill: #fca000;
      }
    </style>
    <clipPath id="clip">
      <use xlink:href="#fill"/>
    </clipPath>
    <clipPath id="clip-2">
      <use xlink:href="#fill-2"/>
    </clipPath>
    <clipPath id="clip-3">
      <use xlink:href="#fill-3"/>
    </clipPath>
  </defs>
  <g id="Jemuran-Icon" transform="translate(-1765.789 -229.783)">
    <rect id="Rectangle_388" data-name="Rectangle 388" class="cls-1" width="42.056" height="42.056" transform="translate(1765.789 229.783)"/>
    <g id="Group_516" data-name="Group 516" transform="translate(1770.904 233.38)">
      <g id="Rectangle_238" data-name="Rectangle 238" class="cls-2" transform="translate(0 4)">
        <rect id="fill" class="cls-5" width="31.826" height="0.862" rx="0.431"/>
        <path class="cls-6" d="M0,0.36163330078125h31.826059341430664M31.326059341430664,0v0.86163330078125M31.826059341430664,0.5h-31.826059341430664M0.5,0.86163330078125v-0.86163330078125"/>
      </g>
      <g id="Rectangle_399" data-name="Rectangle 399" class="cls-3" transform="translate(11 4)">
        <rect id="fill-2" class="cls-5" width="0.826" height="2.862" rx="0.413"/>
        <path class="cls-7" d="M0,0.5h0.8260593414306641M0.5,0v2.86163330078125M0.8260593414306641,2.36163330078125h-0.8260593414306641M0.32605934143066406,2.86163330078125v-2.86163330078125"/>
      </g>
      <g id="Rectangle_400" data-name="Rectangle 400" class="cls-3" transform="translate(20 4)">
        <rect id="fill-3" class="cls-5" width="0.826" height="2.862" rx="0.413"/>
        <path class="cls-8" d="M0,0.5h0.8260593414306641M0.5,0v2.86163330078125M0.8260593414306641,2.36163330078125h-0.8260593414306641M0.32605934143066406,2.86163330078125v-2.86163330078125"/>
      </g>
      <g id="Union_13" data-name="Union 13" class="cls-4" transform="translate(1772.8 241.379)">
        <path class="cls-5" d="M -1749.402587890625 -211.0172119140625 L -1764.450439453125 -211.0172119140625 L -1764.450439453125 -225.3870086669922 L -1764.450439453125 -226.5641632080078 L -1765.297607421875 -225.7468414306641 L -1766.7021484375 -224.3917694091797 L -1770.196533203125 -228.0071105957031 L -1764.171264648438 -233.8192443847656 C -1764.029663085938 -233.9558410644531 -1763.872802734375 -234.0753479003906 -1763.705200195313 -234.1743621826172 L -1763.661865234375 -234.2000122070313 L -1763.624389648438 -234.2337951660156 C -1763.1640625 -234.6497192382813 -1762.569580078125 -234.8787994384766 -1761.95068359375 -234.8787994384766 L -1761.891357421875 -234.8787994384766 L -1760.337280273438 -234.8787994384766 C -1760.062255859375 -233.2620849609375 -1758.636596679688 -232.0167999267578 -1756.954833984375 -232.0167999267578 L -1756.84228515625 -232.0167999267578 C -1755.159790039063 -232.0167999267578 -1753.733642578125 -233.2624664306641 -1753.458984375 -234.8794860839844 L -1751.902465820313 -234.8787994384766 L -1751.853637695313 -234.8787994384766 C -1751.22900390625 -234.8787994384766 -1750.630615234375 -234.6462707519531 -1750.168579101563 -234.2240447998047 L -1750.130981445313 -234.1896057128906 L -1750.087036132813 -234.1634826660156 C -1749.923828125 -234.0662994384766 -1749.77099609375 -233.9491882324219 -1749.6328125 -233.8153686523438 L -1743.611450195313 -228.0071105957031 L -1747.102294921875 -224.3954010009766 L -1748.506713867188 -225.7504272460938 L -1749.353881835938 -226.5678100585938 L -1749.353881835938 -225.3906097412109 L -1749.353881835938 -216.0167083740234 L -1749.402587890625 -216.0167083740234 L -1749.402587890625 -215.5167083740234 L -1749.402587890625 -211.0172119140625 Z"/>
        <path class="cls-9" d="M -1749.902587890625 -211.5172119140625 L -1749.902587890625 -215.5167083740234 L -1749.902587890625 -216.5167083740234 L -1749.853881835938 -216.5167083740234 L -1749.853881835938 -225.3906097412109 L -1749.853881835938 -227.7450103759766 L -1748.159545898438 -226.1102600097656 L -1747.114624023438 -225.1020812988281 L -1744.318725585938 -227.9947204589844 L -1749.980590820313 -233.4561462402344 C -1750.091064453125 -233.5630493164063 -1750.212890625 -233.6564788818359 -1750.342895507813 -233.7338714599609 L -1750.430541992188 -233.7861022949219 L -1750.505981445313 -233.85498046875 C -1750.87548828125 -234.1927642822266 -1751.354125976563 -234.3787994384766 -1751.853637695313 -234.3787994384766 L -1751.902709960938 -234.3787994384766 L -1753.060791015625 -234.3793182373047 C -1753.532470703125 -232.73388671875 -1755.06201171875 -231.5167999267578 -1756.84228515625 -231.5167999267578 L -1756.954833984375 -231.5167999267578 C -1758.734497070313 -231.5167999267578 -1760.263671875 -232.7335815429688 -1760.7353515625 -234.3787994384766 L -1761.891357421875 -234.3787994384766 L -1761.95068359375 -234.3787994384766 C -1762.445556640625 -234.3787994384766 -1762.9208984375 -234.1955413818359 -1763.289184570313 -233.8627777099609 L -1763.364013671875 -233.7951965332031 L -1763.450805664063 -233.7439117431641 C -1763.5849609375 -233.6646728515625 -1763.710571289063 -233.5688781738281 -1763.82421875 -233.4593811035156 L -1769.4892578125 -227.9947357177734 L -1766.689819335938 -225.0984497070313 L -1765.644775390625 -226.1066741943359 L -1763.950439453125 -227.7413177490234 L -1763.950439453125 -225.3870086669922 L -1763.950439453125 -211.5172119140625 L -1749.902587890625 -211.5172119140625 M -1748.902587890625 -210.5172119140625 L -1764.950439453125 -210.5172119140625 L -1764.950439453125 -225.3870086669922 L -1766.714477539063 -223.6851043701172 L -1770.903930664063 -228.0195007324219 L -1764.518432617188 -234.1791076660156 C -1764.345703125 -234.3456115722656 -1764.157592773438 -234.4878082275391 -1763.959594726563 -234.6048126220703 C -1763.427612304688 -235.0854034423828 -1762.722900390625 -235.3787994384766 -1761.95068359375 -235.3787994384766 L -1761.891357421875 -235.3787994384766 L -1759.884399414063 -235.3787994384766 C -1759.847412109375 -233.8002014160156 -1758.533447265625 -232.5167999267578 -1756.954833984375 -232.5167999267578 L -1756.84228515625 -232.5167999267578 C -1755.262817382813 -232.5167999267578 -1753.948852539063 -233.8011016845703 -1753.911987304688 -235.3787994384766 L -1753.911987304688 -235.3796997070313 L -1753.911010742188 -235.3796997070313 L -1751.902221679688 -235.3787994384766 L -1751.853637695313 -235.3787994384766 C -1751.0751953125 -235.3787994384766 -1750.364990234375 -235.0809020996094 -1749.831298828125 -234.5931091308594 C -1749.637817382813 -234.4779052734375 -1749.454223632813 -234.3384094238281 -1749.285034179688 -234.1746063232422 L -1742.904052734375 -228.0195007324219 L -1747.089965820313 -223.6887054443359 L -1748.853881835938 -225.3906097412109 L -1748.853881835938 -215.5185089111328 L -1748.853881835938 -215.5167083740234 L -1748.854858398438 -215.5167083740234 L -1748.902587890625 -215.5167083740234 L -1748.902587890625 -210.5172119140625 Z"/>
      </g>
    </g>
  </g>
</svg>
