<svg xmlns="http://www.w3.org/2000/svg" viewBox="0 0 42.056 42.056">
  <defs>
    <style>
      .cls-1 {
        fill: #fff;
      }

      .cls-2, .cls-3 {
        fill: #febc11;
      }

      .cls-2, .cls-4, .cls-5 {
        stroke: #fca000;
      }

      .cls-4, .cls-8 {
        fill: #fca000;
      }

      .cls-5, .cls-7 {
        fill: none;
      }

      .cls-6, .cls-8 {
        stroke: none;
      }
    </style>
  </defs>
  <g id="KipasAngin-Icon" transform="translate(-1464.649 -401.326)">
    <rect id="Rectangle_379" data-name="Rectangle 379" class="cls-1" width="42.056" height="42.056" transform="translate(1464.649 401.326)"/>
    <g id="Rectangle_380" data-name="Rectangle 380" class="cls-2" transform="translate(1483.681 422.177)">
      <rect class="cls-6" width="4.413" height="13.858"/>
      <rect class="cls-7" x="0.5" y="0.5" width="3.413" height="12.858"/>
    </g>
    <g id="Rectangle_381" data-name="Rectangle 381" class="cls-2" transform="translate(1481.681 433.177)">
      <path class="cls-6" d="M2.858,0h2.7A2.858,2.858,0,0,1,8.413,2.858v0a0,0,0,0,1,0,0H0a0,0,0,0,1,0,0v0A2.858,2.858,0,0,1,2.858,0Z"/>
      <path class="cls-7" d="M2.049.5H6.364A1.549,1.549,0,0,1,7.913,2.049v0a.31.31,0,0,1-.31.31H.81a.31.31,0,0,1-.31-.31v0A1.549,1.549,0,0,1,2.049.5Z"/>
    </g>
    <g id="Group_188" data-name="Group 188" transform="translate(1471.289 420.406) rotate(-45)">
      <g id="Path_81" data-name="Path 81" class="cls-3" transform="translate(0 10.202) rotate(-45)">
        <path class="cls-6" d="M 6.032347679138184 6.249118328094482 C 2.981797695159912 6.249118328094482 0.4999977350234985 3.767308235168457 0.4999977350234985 0.7167481780052185 C 0.4999977350234985 0.5978729128837585 0.5171318650245667 0.5304409861564636 0.5286937355995178 0.502247154712677 C 0.5367342233657837 0.5010724067687988 0.5485233068466187 0.4999981820583344 0.5647577047348022 0.4999981820583344 C 0.8841977119445801 0.4999981820583344 1.688197731971741 0.8674482107162476 2.902817726135254 1.903008222579956 C 3.922617673873901 2.772468090057373 4.952427864074707 3.884148120880127 5.590367794036865 4.80422830581665 C 6.259160995483398 5.768799304962158 6.256006717681885 6.147081851959229 6.246447563171387 6.220631122589111 C 6.217968463897705 6.232184886932373 6.150593280792236 6.249118328094482 6.032347679138184 6.249118328094482 Z"/>
        <path class="cls-8" d="M 5.573020935058594 5.728337287902832 C 5.29865026473999 5.203824996948242 4.680921077728271 4.313264846801758 3.558397769927979 3.19074821472168 C 2.434799909591675 2.067157506942749 1.543553352355957 1.44927990436554 1.02070939540863 1.175317168235779 C 1.239451050758362 3.584718942642212 3.163694858551025 5.509360313415527 5.573020935058594 5.728337287902832 M 6.032347679138184 6.749118328094482 C 2.700767755508423 6.749118328094482 -2.278289684909396e-06 4.048338413238525 -2.278289684909396e-06 0.7167481780052185 C -2.278289684909396e-06 0.213674858212471 0.213691383600235 1.827850383051555e-06 0.5647594332695007 1.827850383051555e-06 C 2.538630485534668 1.827850383051555e-06 8.860847473144531 6.749118328094482 6.032347679138184 6.749118328094482 Z"/>
      </g>
      <g id="Path_82" data-name="Path 82" class="cls-3" transform="translate(10.201 0) rotate(45)">
        <path class="cls-6" d="M 6.032371044158936 6.249088287353516 C 2.981811046600342 6.249088287353516 0.500001072883606 3.767288208007813 0.500001072883606 0.7167381644248962 C 0.500001072883606 0.5978710651397705 0.5171351432800293 0.530434250831604 0.5286970138549805 0.5022438168525696 C 0.5367374420166016 0.5010703206062317 0.5485266447067261 0.4999981820583344 0.5647611021995544 0.4999981820583344 C 0.8842011094093323 0.4999981820583344 1.68821108341217 0.8674381971359253 2.902841091156006 1.902998208999634 C 3.922641038894653 2.772458076477051 4.952461242675781 3.884138107299805 5.590401172637939 4.804208278656006 C 6.259194374084473 5.768770694732666 6.256032466888428 6.147049427032471 6.246479034423828 6.220598220825195 C 6.218005657196045 6.232151985168457 6.150633811950684 6.249088287353516 6.032371044158936 6.249088287353516 Z"/>
        <path class="cls-8" d="M 5.573051452636719 5.728308200836182 C 5.29867696762085 5.203798770904541 4.680941581726074 4.313244819641113 3.558411121368408 3.190728187561035 C 2.434813499450684 2.067144632339478 1.54356050491333 1.449273228645325 1.020713567733765 1.17531406879425 C 1.239456176757813 3.584707021713257 3.163716316223145 5.509332180023193 5.573051452636719 5.728308200836182 M 6.032371044158936 6.749088287353516 C 2.700781106948853 6.749088287353516 1.086731003852037e-06 4.048318386077881 1.086731003852037e-06 0.7167381644248962 C 1.086731003852037e-06 0.2136678546667099 0.2136941254138947 -2.912292529799743e-06 0.5647636651992798 -2.912292529799743e-06 C 2.538642883300781 -2.912292529799743e-06 8.86088752746582 6.749088287353516 6.032371044158936 6.749088287353516 Z"/>
      </g>
      <g id="Path_83" data-name="Path 83" class="cls-3" transform="translate(10.202 20.403) rotate(-135)">
        <path class="cls-6" d="M 6.032371044158936 6.249088287353516 C 2.981811046600342 6.249088287353516 0.500001072883606 3.767288208007813 0.500001072883606 0.7167381644248962 C 0.500001072883606 0.5978710651397705 0.5171351432800293 0.530434250831604 0.5286970138549805 0.5022438168525696 C 0.5367374420166016 0.5010703206062317 0.5485266447067261 0.4999981820583344 0.5647611021995544 0.4999981820583344 C 0.8842011094093323 0.4999981820583344 1.68821108341217 0.8674381971359253 2.902841091156006 1.902998208999634 C 3.922641038894653 2.772458076477051 4.952461242675781 3.884138107299805 5.590401172637939 4.804208278656006 C 6.259194374084473 5.768770694732666 6.256032466888428 6.147049427032471 6.246479034423828 6.220598220825195 C 6.218005657196045 6.232151985168457 6.150633811950684 6.249088287353516 6.032371044158936 6.249088287353516 Z"/>
        <path class="cls-8" d="M 5.573051452636719 5.728308200836182 C 5.29867696762085 5.203798770904541 4.680941581726074 4.313244819641113 3.558411121368408 3.190728187561035 C 2.434813499450684 2.067144632339478 1.54356050491333 1.449273228645325 1.020713567733765 1.17531406879425 C 1.239456176757813 3.584707021713257 3.163716316223145 5.509332180023193 5.573051452636719 5.728308200836182 M 6.032371044158936 6.749088287353516 C 2.700781106948853 6.749088287353516 1.086731003852037e-06 4.048318386077881 1.086731003852037e-06 0.7167381644248962 C 1.086731003852037e-06 0.2136678546667099 0.2136941254138947 -2.912292529799743e-06 0.5647636651992798 -2.912292529799743e-06 C 2.538642883300781 -2.912292529799743e-06 8.86088752746582 6.749088287353516 6.032371044158936 6.749088287353516 Z"/>
      </g>
      <g id="Path_84" data-name="Path 84" class="cls-3" transform="translate(20.403 10.201) rotate(135)">
        <path class="cls-6" d="M 6.032347679138184 6.249118328094482 C 2.981797695159912 6.249118328094482 0.4999977350234985 3.767308235168457 0.4999977350234985 0.7167481780052185 C 0.4999977350234985 0.5978729128837585 0.5171318650245667 0.5304409861564636 0.5286937355995178 0.502247154712677 C 0.5367342233657837 0.5010724067687988 0.5485233068466187 0.4999981820583344 0.5647577047348022 0.4999981820583344 C 0.8841977119445801 0.4999981820583344 1.688197731971741 0.8674482107162476 2.902817726135254 1.903008222579956 C 3.922617673873901 2.772468090057373 4.952427864074707 3.884148120880127 5.590367794036865 4.80422830581665 C 6.259160995483398 5.768799304962158 6.256006717681885 6.147081851959229 6.246447563171387 6.220631122589111 C 6.217968463897705 6.232184886932373 6.150593280792236 6.249118328094482 6.032347679138184 6.249118328094482 Z"/>
        <path class="cls-8" d="M 5.573020935058594 5.728337287902832 C 5.29865026473999 5.203824996948242 4.680921077728271 4.313264846801758 3.558397769927979 3.19074821472168 C 2.434799909591675 2.067157506942749 1.543553352355957 1.44927990436554 1.02070939540863 1.175317168235779 C 1.239451050758362 3.584718942642212 3.163694858551025 5.509360313415527 5.573020935058594 5.728337287902832 M 6.032347679138184 6.749118328094482 C 2.700767755508423 6.749118328094482 -2.278289684909396e-06 4.048338413238525 -2.278289684909396e-06 0.7167481780052185 C -2.278289684909396e-06 0.213674858212471 0.213691383600235 1.827850383051555e-06 0.5647594332695007 1.827850383051555e-06 C 2.538630485534668 1.827850383051555e-06 8.860847473144531 6.749118328094482 6.032347679138184 6.749118328094482 Z"/>
      </g>
      <g id="Ellipse_63" data-name="Ellipse 63" class="cls-4" transform="translate(8.094 8.087)">
        <circle class="cls-6" cx="2.111" cy="2.111" r="2.111"/>
        <circle class="cls-7" cx="2.111" cy="2.111" r="1.611"/>
      </g>
    </g>
    <g id="Group_189" data-name="Group 189" transform="translate(1475.029 410)">
      <g id="Ellipse_65" data-name="Ellipse 65" class="cls-5" transform="translate(0 0)">
        <ellipse class="cls-6" cx="10.557" cy="10.557" rx="10.557" ry="10.557"/>
        <ellipse class="cls-7" cx="10.557" cy="10.557" rx="10.057" ry="10.057"/>
      </g>
    </g>
  </g>
</svg>
