<svg id="KlosetJongkok-Icon" xmlns="http://www.w3.org/2000/svg" xmlns:xlink="http://www.w3.org/1999/xlink" viewBox="0 0 42.056 42.056">
  <defs>
    <style>
      .cls-1 {
        fill: #fff;
      }

      .cls-2 {
        fill: #febc11;
      }

      .cls-2, .cls-3 {
        stroke: #fca000;
        stroke-linejoin: round;
      }

      .cls-3 {
        fill: #fca000;
      }

      .cls-4 {
        stroke: none;
      }

      .cls-10, .cls-11, .cls-12, .cls-13, .cls-5, .cls-6, .cls-7, .cls-8, .cls-9 {
        fill: none;
      }

      .cls-6 {
        clip-path: url(#clip);
      }

      .cls-7 {
        clip-path: url(#clip-2);
      }

      .cls-8 {
        clip-path: url(#clip-3);
      }

      .cls-9 {
        clip-path: url(#clip-4);
      }

      .cls-10 {
        clip-path: url(#clip-5);
      }

      .cls-11 {
        clip-path: url(#clip-6);
      }

      .cls-12 {
        clip-path: url(#clip-7);
      }

      .cls-13 {
        clip-path: url(#clip-8);
      }
    </style>
    <clipPath id="clip">
      <use xlink:href="#fill"/>
    </clipPath>
    <clipPath id="clip-2">
      <use xlink:href="#fill-2"/>
    </clipPath>
    <clipPath id="clip-3">
      <use xlink:href="#fill-3"/>
    </clipPath>
    <clipPath id="clip-4">
      <use xlink:href="#fill-4"/>
    </clipPath>
    <clipPath id="clip-5">
      <use xlink:href="#fill-5"/>
    </clipPath>
    <clipPath id="clip-6">
      <use xlink:href="#fill-6"/>
    </clipPath>
    <clipPath id="clip-7">
      <use xlink:href="#fill-7"/>
    </clipPath>
    <clipPath id="clip-8">
      <use xlink:href="#fill-8"/>
    </clipPath>
  </defs>
  <rect id="Rectangle_359" data-name="Rectangle 359" class="cls-1" width="42.056" height="42.056" transform="translate(0)"/>
  <g id="Group_533" data-name="Group 533" transform="translate(-2.42 -2.939)">
    <g id="Rectangle_360" data-name="Rectangle 360" class="cls-2" transform="translate(11.542 9.509)">
      <path class="cls-4" d="M11.907,0h0A11.907,11.907,0,0,1,23.814,11.907V24.948a3.969,3.969,0,0,1-3.969,3.969H3.969A3.969,3.969,0,0,1,0,24.948V11.907A11.907,11.907,0,0,1,11.907,0Z"/>
      <path class="cls-5" d="M11.907.5h0A11.407,11.407,0,0,1,23.314,11.907v12.97a3.54,3.54,0,0,1-3.54,3.54H4.04A3.54,3.54,0,0,1,.5,24.876V11.907A11.407,11.407,0,0,1,11.907.5Z"/>
    </g>
    <g id="Group_182" data-name="Group 182" transform="translate(13.145 21.37)">
      <g id="Rectangle_370" data-name="Rectangle 370" class="cls-2">
        <path id="fill" class="cls-4" d="M.637,0h2a.637.637,0,0,1,.637.637v0a.212.212,0,0,1-.212.212H.212A.212.212,0,0,1,0,.637v0A.637.637,0,0,1,.637,0Z"/>
        <path class="cls-6" d="M0,0.34884387254714966h3.268824338912964M2.768824338912964,0v0.8488438725471497M3.268824338912964,0.5h-3.268824338912964M0.5,0.8488438725471497v-0.8488438725471497"/>
      </g>
      <g id="Rectangle_371" data-name="Rectangle 371" class="cls-2" transform="translate(17.338)">
        <path id="fill-2" class="cls-4" d="M.637,0h2a.637.637,0,0,1,.637.637v0a.212.212,0,0,1-.212.212H.212A.212.212,0,0,1,0,.637v0A.637.637,0,0,1,.637,0Z"/>
        <path class="cls-7" d="M0,0.34884387254714966h3.268824338912964M2.768824338912964,0v0.8488438725471497M3.268824338912964,0.5h-3.268824338912964M0.5,0.8488438725471497v-0.8488438725471497"/>
      </g>
    </g>
    <g id="Group_183" data-name="Group 183" transform="translate(13.145 24.284)">
      <g id="Rectangle_370-2" data-name="Rectangle 370" class="cls-2">
        <path id="fill-3" class="cls-4" d="M.637,0h2a.637.637,0,0,1,.637.637v0a.212.212,0,0,1-.212.212H.212A.212.212,0,0,1,0,.637v0A.637.637,0,0,1,.637,0Z"/>
        <path class="cls-8" d="M0,0.34884387254714966h3.268824338912964M2.768824338912964,0v0.8488438725471497M3.268824338912964,0.5h-3.268824338912964M0.5,0.8488438725471497v-0.8488438725471497"/>
      </g>
      <g id="Rectangle_371-2" data-name="Rectangle 371" class="cls-2" transform="translate(17.338)">
        <path id="fill-4" class="cls-4" d="M.637,0h2a.637.637,0,0,1,.637.637v0a.212.212,0,0,1-.212.212H.212A.212.212,0,0,1,0,.637v0A.637.637,0,0,1,.637,0Z"/>
        <path class="cls-9" d="M0,0.34884387254714966h3.268824338912964M2.768824338912964,0v0.8488438725471497M3.268824338912964,0.5h-3.268824338912964M0.5,0.8488438725471497v-0.8488438725471497"/>
      </g>
    </g>
    <g id="Group_184" data-name="Group 184" transform="translate(13.145 27.197)">
      <g id="Rectangle_370-3" data-name="Rectangle 370" class="cls-2" transform="translate(0 0)">
        <path id="fill-5" class="cls-4" d="M.637,0h2a.637.637,0,0,1,.637.637v0a.212.212,0,0,1-.212.212H.212A.212.212,0,0,1,0,.637v0A.637.637,0,0,1,.637,0Z"/>
        <path class="cls-10" d="M0,0.34884387254714966h3.268824338912964M2.768824338912964,0v0.8488438725471497M3.268824338912964,0.5h-3.268824338912964M0.5,0.8488438725471497v-0.8488438725471497"/>
      </g>
      <g id="Rectangle_371-3" data-name="Rectangle 371" class="cls-2" transform="translate(17.338 0)">
        <path id="fill-6" class="cls-4" d="M.637,0h2a.637.637,0,0,1,.637.637v0a.212.212,0,0,1-.212.212H.212A.212.212,0,0,1,0,.637v0A.637.637,0,0,1,.637,0Z"/>
        <path class="cls-11" d="M0,0.34884387254714966h3.268824338912964M2.768824338912964,0v0.8488438725471497M3.268824338912964,0.5h-3.268824338912964M0.5,0.8488438725471497v-0.8488438725471497"/>
      </g>
    </g>
    <g id="Group_185" data-name="Group 185" transform="translate(13.145 30.111)">
      <g id="Rectangle_370-4" data-name="Rectangle 370" class="cls-2" transform="translate(0 0)">
        <path id="fill-7" class="cls-4" d="M.637,0h2a.637.637,0,0,1,.637.637v0a.212.212,0,0,1-.212.212H.212A.212.212,0,0,1,0,.637v0A.637.637,0,0,1,.637,0Z"/>
        <path class="cls-12" d="M0,0.34884387254714966h3.268824338912964M2.768824338912964,0v0.8488438725471497M3.268824338912964,0.5h-3.268824338912964M0.5,0.8488438725471497v-0.8488438725471497"/>
      </g>
      <g id="Rectangle_371-4" data-name="Rectangle 371" class="cls-2" transform="translate(17.338 0)">
        <path id="fill-8" class="cls-4" d="M.637,0h2a.637.637,0,0,1,.637.637v0a.212.212,0,0,1-.212.212H.212A.212.212,0,0,1,0,.637v0A.637.637,0,0,1,.637,0Z"/>
        <path class="cls-13" d="M0,0.34884387254714966h3.268824338912964M2.768824338912964,0v0.8488438725471497M3.268824338912964,0.5h-3.268824338912964M0.5,0.8488438725471497v-0.8488438725471497"/>
      </g>
    </g>
    <g id="Rectangle_368" data-name="Rectangle 368" class="cls-2" transform="translate(16.645 13.761)">
      <path class="cls-4" d="M6.8,0h0a6.8,6.8,0,0,1,6.8,6.8V17.86a3.4,3.4,0,0,1-3.4,3.4H3.4A3.4,3.4,0,0,1,0,17.86V6.8A6.8,6.8,0,0,1,6.8,0Z"/>
      <path class="cls-5" d="M6.8.5h0a6.3,6.3,0,0,1,6.3,6.3V17.776a2.986,2.986,0,0,1-2.986,2.986H3.486A2.986,2.986,0,0,1,.5,17.776V6.8A6.3,6.3,0,0,1,6.8.5Z"/>
    </g>
    <g id="Rectangle_369" data-name="Rectangle 369" class="cls-3" transform="translate(20.897 25.668)">
      <rect class="cls-4" width="5.103" height="5.953" rx="2.551"/>
      <rect class="cls-5" x="0.5" y="0.5" width="4.103" height="4.953" rx="2.051"/>
    </g>
  </g>
</svg>
