<svg id="KlosetDuduk-Icon" xmlns="http://www.w3.org/2000/svg" viewBox="0 0 42.056 42.056">
  <defs>
    <style>
      .cls-1 {
        fill: #fff;
      }

      .cls-2, .cls-3 {
        fill: #febc11;
        stroke-linejoin: round;
      }

      .cls-3 {
        stroke: #fca000;
      }

      .cls-4, .cls-6 {
        fill: #fca000;
      }

      .cls-5, .cls-6 {
        stroke: none;
      }

      .cls-7 {
        fill: none;
      }
    </style>
  </defs>
  <rect id="Rectangle_359" data-name="Rectangle 359" class="cls-1" width="42.056" height="42.056" transform="translate(0)"/>
  <g id="Union_9" data-name="Union 9" class="cls-2" transform="translate(19.622 25.256)">
    <path class="cls-5" d="M 10.88049983978271 10.03630065917969 L 2.539215564727783 10.03630065917969 C 3.272943258285522 9.354007720947266 3.732800006866455 8.380960464477539 3.732800006866455 7.303500175476074 C 3.732800006866455 6.225878715515137 3.273669958114624 5.253459930419922 2.540770769119263 4.571600437164307 L 4.850100040435791 4.571600437164307 L 5.350100040435791 4.571600437164307 L 5.350100040435791 4.071600437164307 L 5.350100040435791 0.5000003576278687 L 10.81480026245117 0.5000003576278687 L 10.81480026245117 4.071600437164307 L 10.81480026245117 4.571600437164307 L 10.88049983978271 4.571600437164307 L 10.88049983978271 10.03630065917969 Z"/>
    <path class="cls-6" d="M 10.38049983978271 9.536300659179688 L 10.38049983978271 4.428840637207031 C 10.33805274963379 4.317897319793701 10.31480026245117 4.197467803955078 10.31480026245117 4.071600437164307 L 10.31480026245117 1.000000357627869 L 5.850100040435791 1.000000357627869 L 5.850100040435791 4.071600437164307 C 5.850100040435791 4.623880386352539 5.402379989624023 5.071600437164307 4.850100040435791 5.071600437164307 L 3.595150947570801 5.071600437164307 C 3.999153852462769 5.719898223876953 4.232800006866455 6.484987735748291 4.232800006866455 7.303500175476074 C 4.232800006866455 8.122096061706543 3.998714447021484 8.887564659118652 3.593995809555054 9.536300659179688 L 10.38049983978271 9.536300659179688 M 11.38049983978271 10.53630065917969 L 11.37870025634766 10.53630065917969 L 0.006300054024904966 10.53630065917969 C 1.785600066184998 10.53270053863525 3.232800006866455 9.083700180053711 3.232800006866455 7.303500175476074 C 3.232800006866455 5.521500110626221 1.782900094985962 4.071600437164307 0.0009000541758723557 4.071600437164307 L 4.850100040435791 4.071600437164307 L 4.850100040435791 3.295898522992502e-07 L 11.31480026245117 3.295898522992502e-07 L 11.31480026245117 4.071600437164307 L 11.38049983978271 4.071600437164307 L 11.38049983978271 10.535400390625 L 11.38049983978271 10.53630065917969 Z"/>
  </g>
  <g id="Rectangle_372" data-name="Rectangle 372" class="cls-3" transform="translate(30.936 30.516) rotate(180)">
    <path class="cls-5" d="M4,0h8.817a7,7,0,0,1,7,7v4.272a2,2,0,0,1-2,2H3a3,3,0,0,1-3-3V4A4,4,0,0,1,4,0Z"/>
    <path class="cls-7" d="M4,.5h8.817a6.5,6.5,0,0,1,6.5,6.5v4.272a1.5,1.5,0,0,1-1.5,1.5H3a2.5,2.5,0,0,1-2.5-2.5V4A3.5,3.5,0,0,1,4,.5Z"/>
  </g>
  <g id="Rectangle_374" data-name="Rectangle 374" class="cls-3" transform="translate(24.472 3.892)">
    <rect class="cls-5" width="6.464" height="15.942" rx="1"/>
    <rect class="cls-7" x="0.5" y="0.5" width="5.464" height="14.942" rx="0.5"/>
  </g>
  <rect id="Rectangle_373" data-name="Rectangle 373" class="cls-4" width="21.1" height="5.261" rx="2" transform="translate(30.975 22.505) rotate(180)"/>
</svg>
